<?xml version="1.0" encoding="UTF-8" standalone="no"?>
<!DOCTYPE svg PUBLIC "-//W3C//DTD SVG 1.1//EN" "http://www.w3.org/Graphics/SVG/1.1/DTD/svg11.dtd">
<svg width="100%" height="100%" viewBox="0 0 600 600" version="1.1" xmlns="http://www.w3.org/2000/svg" xmlns:xlink="http://www.w3.org/1999/xlink" xml:space="preserve" xmlns:serif="http://www.serif.com/" style="fill-rule:evenodd;clip-rule:evenodd;stroke-linecap:round;stroke-linejoin:round;stroke-miterlimit:1.5;">
    <g transform="matrix(1,0,0,1,-4626.7,-1669.45)">
        <g id="base-emote" transform="matrix(3,0,0,3,4626.7,1669.45)">
            <rect x="0" y="0" width="200" height="200" style="fill:none;"/>
            <g transform="matrix(0.333333,0,0,0.333333,-1542.23,-556.485)">
                <path d="M4926.7,2128.7L4812.92,2117.38L4814.81,2009.8L4782.72,1945.62L4750.64,1811.62L4835.57,1781.42L4926.7,1804.07L5037.52,1826.72L5082.81,1921.45L5031.86,1969.46L5033.74,2009.8L5028.08,2128.7L4926.7,2128.7Z"/>
            </g>
            <g transform="matrix(0.862503,0,0,0.860733,-143.01,-161.376)">
                <path d="M376.11,306.908L329.081,306.908L329.081,335.837L362.099,327.414L364.762,314.894L381.397,311.916L385.528,325.581L379.101,327.903L392.792,335.977L392.126,344.41L371.002,341.797L348.218,340.921L329.081,345.485L329.081,359.51L345.849,363.465L367.464,364.881L388.582,362.217L389.268,374.107L375.598,382.216L382.03,384.521L377.933,398.197L361.29,395.259L358.591,380.439L329.081,370.541L329.081,384.877L231.929,384.877L231.929,367.36L201.786,377.553L199.123,390.072L182.488,393.051L178.357,379.385L184.784,377.064L171.093,368.99L171.759,360.557L192.884,363.169L214.495,361.701L231.929,357.543L231.929,347.413L214.396,344.065L192.74,343.581L171.756,347.151L170.708,338.758L184.017,330.069L177.491,328.042L180.996,314.203L197.75,316.422L201.084,328.806L231.929,337.695L231.929,306.908L184.281,306.908L184.281,209.136L376.11,209.136L376.11,306.908ZM318.929,326.847L242.138,343.021L243.455,350.138L320.247,333.964L318.929,326.847ZM289.24,308.764L282.124,296.388L275.008,308.764L289.24,308.764ZM248.636,241.933C261.956,241.933 272.77,252.747 272.77,266.067C272.77,279.386 261.956,290.2 248.636,290.2C235.317,290.2 224.503,279.386 224.503,266.067C224.503,252.747 235.317,241.933 248.636,241.933ZM311.445,256.784C320.496,256.784 327.844,264.132 327.844,273.183C327.844,282.233 320.496,289.581 311.445,289.581C302.395,289.581 295.047,282.233 295.047,273.183C295.047,264.132 302.395,256.784 311.445,256.784Z" style="fill:white;stroke:black;stroke-width:5.76px;"/>
            </g>
        </g>
    </g>
</svg>
